<svg width="36" height="39" viewBox="0 0 36 39" fill="none" xmlns="http://www.w3.org/2000/svg">
<circle cx="18" cy="18" r="18" fill="#FFA501"/>
<path d="M29.7188 14H19.5625C19.1483 14.0005 18.7512 14.1653 18.4582 14.4582C18.1653 14.7512 18.0005 15.1483 18 15.5625V36.6562C18.0005 37.0705 18.1653 37.4676 18.4582 37.7605C18.7512 38.0534 19.1483 38.2182 19.5625 38.2188H29.7188C30.133 38.2182 30.5301 38.0534 30.823 37.7605C31.1159 37.4676 31.2807 37.0705 31.2812 36.6562V15.5625C31.2807 15.1483 31.1159 14.7512 30.823 14.4582C30.5301 14.1653 30.133 14.0005 29.7188 14ZM26.4688 14.7812L26.249 15.5625H22.9927L22.7974 14.7812H26.4688ZM30.5 36.6562C30.4997 36.8634 30.4173 37.0619 30.2709 37.2084C30.1244 37.3548 29.9259 37.4372 29.7188 37.4375H19.5625C19.3554 37.4372 19.1568 37.3548 19.0104 37.2084C18.8639 37.0619 18.7815 36.8634 18.7812 36.6562V15.5625C18.7815 15.3554 18.8639 15.1568 19.0104 15.0104C19.1568 14.8639 19.3554 14.7815 19.5625 14.7812H21.9917L22.3086 16.0479C22.3297 16.1324 22.3785 16.2074 22.4471 16.261C22.5158 16.3146 22.6004 16.3437 22.6875 16.3438H26.5449C26.63 16.3437 26.7128 16.3159 26.7807 16.2646C26.8486 16.2132 26.8978 16.141 26.9209 16.0591L27.2803 14.7812H29.7188C29.9259 14.7815 30.1244 14.8639 30.2709 15.0104C30.4173 15.1568 30.4997 15.3554 30.5 15.5625V36.6562Z" fill="black"/>
<path d="M22.6875 35.875H19.9531C19.8495 35.875 19.7502 35.9162 19.6769 35.9894C19.6037 36.0627 19.5625 36.162 19.5625 36.2656C19.5625 36.3692 19.6037 36.4686 19.6769 36.5418C19.7502 36.6151 19.8495 36.6562 19.9531 36.6562H22.6875C22.7911 36.6562 22.8905 36.6151 22.9637 36.5418C23.037 36.4686 23.0781 36.3692 23.0781 36.2656C23.0781 36.162 23.037 36.0627 22.9637 35.9894C22.8905 35.9162 22.7911 35.875 22.6875 35.875Z" fill="black"/>
<path d="M24.25 35.875H23.8594C23.7558 35.875 23.6564 35.9162 23.5832 35.9894C23.5099 36.0627 23.4688 36.162 23.4688 36.2656C23.4688 36.3692 23.5099 36.4686 23.5832 36.5418C23.6564 36.6151 23.7558 36.6562 23.8594 36.6562H24.25C24.3536 36.6562 24.453 36.6151 24.5262 36.5418C24.5995 36.4686 24.6406 36.3692 24.6406 36.2656C24.6406 36.162 24.5995 36.0627 24.5262 35.9894C24.453 35.9162 24.3536 35.875 24.25 35.875Z" fill="black"/>
<path d="M26.0135 23.8212C25.9695 23.7948 25.9207 23.7774 25.87 23.7698C25.8193 23.7623 25.7675 23.7648 25.7178 23.7772C25.668 23.7897 25.6212 23.8118 25.58 23.8423C25.5387 23.8729 25.5039 23.9112 25.4775 23.9552L23.1338 27.8615C23.0805 27.9503 23.0647 28.0567 23.0898 28.1572C23.1149 28.2577 23.1789 28.3441 23.2678 28.3974C23.3566 28.4507 23.463 28.4665 23.5635 28.4414C23.664 28.4163 23.7504 28.3522 23.8037 28.2634L26.1475 24.3572C26.1739 24.3132 26.1913 24.2644 26.1989 24.2137C26.2064 24.1629 26.2039 24.1112 26.1915 24.0615C26.179 24.0117 26.1569 23.9649 26.1264 23.9236C26.0958 23.8824 26.0575 23.8476 26.0135 23.8212Z" fill="black"/>
<path d="M27.2894 23.9121C27.2573 23.872 27.2177 23.8387 27.1727 23.8139C27.1278 23.7892 27.0784 23.7735 27.0274 23.7679C26.9244 23.7565 26.8211 23.7864 26.7402 23.8512C26.6593 23.9159 26.6074 24.0102 26.596 24.1132C26.5846 24.2161 26.6146 24.3194 26.6793 24.4003L28.0465 26.1093L26.6793 27.8183C26.6146 27.8992 26.5846 28.0025 26.596 28.1055C26.6074 28.2085 26.6593 28.3027 26.7402 28.3675C26.8211 28.4322 26.9244 28.4622 27.0274 28.4508C27.1304 28.4394 27.2246 28.3875 27.2894 28.3066L28.8519 26.3535C28.9073 26.2842 28.9376 26.1981 28.9376 26.1093C28.9376 26.0206 28.9073 25.9345 28.8519 25.8652L27.2894 23.9121Z" fill="black"/>
<path d="M21.9918 28.3066C22.0566 28.3875 22.1508 28.4393 22.2538 28.4508C22.3568 28.4622 22.4601 28.4322 22.541 28.3675C22.6219 28.3027 22.6738 28.2085 22.6852 28.1055C22.6966 28.0025 22.6666 27.8992 22.6019 27.8183L21.2347 26.1093L22.6019 24.4003C22.6339 24.3603 22.6578 24.3143 22.6721 24.265C22.6864 24.2158 22.6908 24.1641 22.6852 24.1131C22.6795 24.0622 22.6639 24.0128 22.6391 23.9678C22.6144 23.9229 22.581 23.8832 22.541 23.8512C22.5009 23.8191 22.455 23.7953 22.4057 23.781C22.3564 23.7667 22.3048 23.7622 22.2538 23.7679C22.2028 23.7735 22.1534 23.7892 22.1085 23.8139C22.0635 23.8387 22.0239 23.872 21.9918 23.9121L20.4293 25.8652C20.3739 25.9345 20.3436 26.0206 20.3436 26.1093C20.3436 26.1981 20.3739 26.2842 20.4293 26.3535L21.9918 28.3066Z" fill="black"/>
</svg>
