<svg width="40" height="40" viewBox="0 0 40 40" fill="none" xmlns="http://www.w3.org/2000/svg">
<circle cx="18" cy="18" r="18" fill="#FFA501"/>
<path d="M17.9297 30.954L16.0651 30.5426C15.5186 31.6452 15 32.8837 15 34.3105C15 35.7101 15.4976 36.9336 16.0651 38.0785L22.373 36.687V39.4312L24.5703 38.3325L26.7676 39.4312V36.6884L33.0263 38.0792C33.5686 36.9853 34.0918 35.7435 34.0918 34.3105C34.0918 34.0636 34.0735 33.8177 34.0428 33.5781H40V16H17.9297V30.954ZM16.9009 36.394C16.7104 35.8902 16.4648 35.0898 16.4648 34.3105C16.4648 33.5312 16.7104 32.7307 16.9009 32.227L22.373 33.4342V35.1869L16.9009 36.394ZM25.3027 37.061L24.5703 36.6948L23.8379 37.061V33.5781H25.3027V37.061ZM32.1913 36.3931L26.7676 35.1878V33.4332L32.1913 32.2279C32.3817 32.7318 32.627 33.5317 32.627 34.3105C32.627 35.0895 32.3817 35.8895 32.1913 36.3931ZM38.5352 17.4648V32.1133H33.7038C33.4637 31.3788 33.2701 31.0319 33.0263 30.5418L25.9548 32.1133H23.1854L19.3945 31.277V17.4648H38.5352Z" fill="black"/>
<path d="M23.8379 18.9297H34.0918V20.3945H23.8379V18.9297Z" fill="black"/>
<path d="M20.8594 24.7891H37.0703V26.2539H20.8594V24.7891Z" fill="black"/>
<path d="M23.8379 27.7188H34.0918V29.1836H23.8379V27.7188Z" fill="black"/>
<path d="M25.3027 21.8594H26.7676V23.3242H25.3027V21.8594Z" fill="black"/>
<path d="M28.2324 21.8594H29.6973V23.3242H28.2324V21.8594Z" fill="black"/>
<path d="M31.1621 21.8594H32.627V23.3242H31.1621V21.8594Z" fill="black"/>
</svg>
