<svg width="38" height="39" viewBox="0 0 38 39" fill="none" xmlns="http://www.w3.org/2000/svg">
<circle cx="18" cy="18" r="18" fill="#FFA501"/>
<path d="M34.7169 30.333L33.2497 29.9022L30.0575 27.8172V27.3394C30.9817 26.6423 31.6164 25.5767 31.7343 24.3553C32.1978 24.2807 32.553 23.8779 32.553 23.3937V22.08C32.553 22.0749 32.5524 22.0699 32.5522 22.0649V20.4007C32.7369 20.2685 32.854 20.0531 32.854 19.8115V18.2885L35.057 17.9133C35.4191 17.8516 35.6794 17.5641 35.705 17.1977C35.7305 16.8314 35.5126 16.5105 35.1626 16.3992L27.736 14.037C27.5811 13.9877 27.4174 13.9877 27.2625 14.0369L19.8358 16.3992C19.4858 16.5105 19.2679 16.8314 19.2934 17.1977C19.3096 17.4304 19.4208 17.6311 19.5925 17.7626V19.7541H19.5744C19.1561 19.7541 18.8159 20.0943 18.8159 20.5126V21.5011L18.3263 24.3748C18.2417 24.8718 18.6245 25.3267 19.1299 25.3267H20.7875C21.2918 25.3267 21.6759 24.8729 21.5911 24.3747L21.1015 21.5011V20.5126C21.1015 20.0943 20.7613 19.7541 20.3431 19.7541H20.3249V17.9786L22.1459 18.2887V19.8115C22.1459 20.0521 22.2626 20.2671 22.4464 20.3995L22.4471 22.0801V23.3937C22.4471 23.8779 22.8022 24.2807 23.2657 24.3553C23.3836 25.576 24.0176 26.6411 24.941 27.3383V27.8183L21.7495 29.9029L20.2834 30.3332C18.7146 30.7937 17.6069 32.2339 17.6069 33.9082V34.9996C17.6069 35.2018 17.7708 35.3658 17.9731 35.3658C18.1754 35.3658 18.3393 35.2019 18.3393 34.9996V33.9082C18.3393 32.5886 19.2235 31.4075 20.4897 31.0359L21.8557 30.635L27.313 33.8778C27.4238 33.9436 27.5704 33.9471 27.6872 33.8778L33.1448 30.6348L34.5107 31.0358C35.7767 31.4074 36.6609 32.5885 36.6609 33.9079V37.4449C36.6609 37.8986 36.2918 38.2677 35.8381 38.2677H34.224V36.6892C34.224 36.4869 34.0601 36.323 33.8578 36.323C33.6556 36.323 33.4916 36.4869 33.4916 36.6892V38.2677H21.5068V36.6892C21.5068 36.4869 21.3429 36.323 21.1406 36.323C20.9383 36.323 20.7744 36.4869 20.7744 36.6892V38.2677H19.162C18.7083 38.2677 18.3392 37.8986 18.3392 37.4449V36.7114C18.3392 36.5092 18.1753 36.3452 17.973 36.3452C17.7707 36.3452 17.6068 36.5091 17.6068 36.7114V37.4449C17.6068 38.3024 18.3044 39 19.1619 39H35.838C36.6956 39 37.3932 38.3024 37.3932 37.4449V33.9079C37.3932 32.2731 36.3232 30.8046 34.7169 30.333V30.333ZM20.7875 24.5943H19.1299C19.0787 24.5943 19.0396 24.5485 19.0483 24.4977L19.4912 21.8983H20.4262L20.8691 24.4977C20.8777 24.5484 20.839 24.5943 20.7875 24.5943V24.5943ZM20.3691 20.5126V21.1659H19.5482V20.5126C19.5482 20.4982 19.5599 20.4865 19.5743 20.4865H20.343C20.3574 20.4864 20.3691 20.4982 20.3691 20.5126V20.5126ZM26.1903 32.2213L26.336 32.4453L22.5973 30.2237L24.9704 28.6737C25.078 29.9364 25.4942 31.1515 26.1903 32.2213ZM26.1877 30.6404C27.0497 30.7629 27.9498 30.763 28.8123 30.6404C28.6456 31.0505 28.4402 31.4462 28.1958 31.8219L27.5 32.8914L26.8041 31.8219C26.5598 31.4462 26.3544 31.0505 26.1877 30.6404V30.6404ZM28.8097 32.2213C29.5058 31.1515 29.922 29.9364 30.0295 28.6737L32.4026 30.2237L28.664 32.4453L28.8097 32.2213ZM30.9519 20.5371H31.8198V21.7137H31.389C31.1479 21.7137 30.9518 21.5176 30.9518 21.2766V20.5371H30.9519ZM20.0578 17.0971L27.4846 14.7348C27.4941 14.7318 27.5043 14.7318 27.514 14.7349L34.9408 17.0971C34.9561 17.102 34.9771 17.1087 34.9745 17.1468C34.9718 17.1849 34.95 17.1885 34.9341 17.1913L32.4787 17.6095L31.5568 17.4955C31.3562 17.4706 31.1733 17.6133 31.1484 17.814C31.1236 18.0147 31.2663 18.1975 31.4669 18.2223L32.1217 18.3033V19.8047L22.8783 19.8044V18.3033L26.6677 17.8344C27.2197 17.7662 27.7792 17.7662 28.3308 17.8344L29.765 18.0118C29.9657 18.0366 30.1486 17.894 30.1734 17.6933C30.1983 17.4926 30.0557 17.3098 29.855 17.2849L28.4207 17.1075C27.8096 17.0319 27.1894 17.0319 26.5778 17.1075L22.5205 17.6096L20.0643 17.1913C20.0484 17.1885 20.0267 17.1849 20.024 17.1468C20.0213 17.1087 20.0424 17.102 20.0578 17.0971V17.0971ZM23.1792 21.7137L23.1788 20.5371H24.0481V21.2766C24.0481 21.5176 23.852 21.7138 23.6109 21.7138H23.1792V21.7137ZM23.9852 24.1671C23.9664 23.8689 23.7185 23.6353 23.421 23.6353C23.2878 23.6353 23.1794 23.5269 23.1794 23.3937V22.4462H23.6109C24.2558 22.4462 24.7805 21.9215 24.7805 21.2766V20.5371H30.2194V21.2766C30.2194 21.9215 30.7441 22.4462 31.389 22.4462H31.8206V23.3937C31.8206 23.5269 31.7122 23.6353 31.5789 23.6353C31.2814 23.6353 31.0335 23.8689 31.0147 24.1671C30.898 26.0162 29.3542 27.4647 27.4999 27.4647C25.6457 27.4647 24.1019 26.0162 23.9852 24.1671V24.1671ZM27.5 28.197C28.1513 28.197 28.7704 28.0481 29.3251 27.7833V28.0154C29.3251 28.6415 29.2406 29.2591 29.078 29.8548C28.0828 30.0446 26.9576 30.0523 25.922 29.8548C25.7594 29.2592 25.6749 28.6416 25.6749 28.0154C25.6749 28.0076 25.6738 28.0001 25.6733 27.9924C25.6732 27.9909 25.6734 27.9894 25.6733 27.9879V27.7826C26.2284 28.0478 26.848 28.197 27.5 28.197V28.197Z" fill="black"/>
</svg>
