<svg width="42" height="39" viewBox="0 0 42 39" fill="none" xmlns="http://www.w3.org/2000/svg">
<circle cx="18" cy="18" r="18" fill="#FFA501"/>
<g clip-path="url(#clip0_110014_5)">
<path d="M39.5 17.75H28.25V18.5833H39.5V17.75Z" fill="black"/>
<path d="M35.3333 19.4166H28.25V20.25H35.3333V19.4166Z" fill="black"/>
<path d="M35.3333 21.0834H28.25V21.9167H35.3333V21.0834Z" fill="black"/>
<path d="M39.5 16.0834H31.5833V16.9167H39.5V16.0834Z" fill="black"/>
<path d="M30.75 16.0834H29.9167V16.9167H30.75V16.0834Z" fill="black"/>
<path d="M29.9166 30.6666H29.0833V31.5H29.9166V30.6666Z" fill="black"/>
<path d="M23.9612 16.7946L23.3721 16.2054L22.5387 17.0388C22.3761 17.2015 22.3761 17.4652 22.5387 17.6279L23.3721 18.4613L23.9612 17.8721L23.4225 17.3334L23.9612 16.7946Z" fill="black"/>
<path d="M27.2946 17.0388L26.4612 16.2054L25.8721 16.7946L26.4108 17.3334L25.8721 17.8721L26.4612 18.4613L27.2946 17.6279C27.4572 17.4652 27.4572 17.2015 27.2946 17.0388Z" fill="black"/>
<path d="M24.9384 15.9511L24.1042 18.451L24.8944 18.7147L25.7285 16.2147L24.9384 15.9511Z" fill="black"/>
<path d="M38.6667 26.9167V23.5833H37.8334V26.9167H37V22.75H36.1667V26.9167H35.3334V24.8333H34.5V26.9167H33.6667V24.4167H32.8334V26.9167H32V25.25H31.1667V26.9167H30.3334V27.75H39.5V26.9167H38.6667Z" fill="black"/>
<path d="M39.0834 14H19.9167C18.5365 14.0014 17.418 15.1198 17.4167 16.5V24.6775V24.6812V29.4167V30.6667C17.418 32.0468 18.5365 33.1653 19.9167 33.1667H25.0759L23.4092 36.5H21.1667C20.4763 36.5 19.9167 37.0596 19.9167 37.75C19.9167 38.4404 20.4763 39 21.1667 39H37.8334C38.5237 39 39.0834 38.4404 39.0834 37.75C39.0834 37.0596 38.5237 36.5 37.8334 36.5H35.5909L33.9242 33.1667H39.0834C40.4635 33.1653 41.582 32.0468 41.5834 30.6667V16.5C41.582 15.1198 40.4635 14.0014 39.0834 14ZM18.25 19.8625L19.1971 20.99C19.2763 21.0843 19.3931 21.1387 19.5163 21.1387H20.7917C20.9148 21.1387 21.0317 21.0843 21.1109 20.99L22.0584 19.8625L22.9934 20.1662L23.0967 21.6342C23.1052 21.7569 23.1676 21.8696 23.2671 21.9421L24.2992 22.6921C24.399 22.7642 24.5255 22.7887 24.645 22.7592L26.0754 22.4038L26.6538 23.1992L25.8742 24.4492C25.8096 24.554 25.7947 24.6819 25.8334 24.7987L26.2279 26.0117C26.2659 26.1286 26.3536 26.2229 26.4675 26.2692L27.8334 26.8229V27.8062L26.4667 28.36C26.3525 28.406 26.2647 28.5006 26.2271 28.6179L26.1021 29H23.7017C24.6354 27.045 23.8075 24.7032 21.8525 23.7694C20.7042 23.221 19.3612 23.2636 18.25 23.8837V19.8625ZM18.25 24.875C19.5977 23.8236 21.5426 24.0638 22.594 25.4116C23.4057 26.4521 23.4684 27.8929 22.75 29H18.25V24.875ZM37.8334 37.3333C38.0635 37.3333 38.25 37.5199 38.25 37.75C38.25 37.9801 38.0635 38.1667 37.8334 38.1667H21.1667C20.9366 38.1667 20.75 37.9801 20.75 37.75C20.75 37.5199 20.9366 37.3333 21.1667 37.3333H37.8334ZM34.6592 36.5H24.3409L26.0075 33.1667H32.9925L34.6592 36.5ZM40.75 30.6667C40.75 31.5871 40.0038 32.3333 39.0834 32.3333H19.9167C18.9962 32.3333 18.25 31.5871 18.25 30.6667V29.8333H22.9675H22.9713H40.75V30.6667ZM40.75 29H27.1063L28.4067 28.4729C28.5638 28.4092 28.6666 28.2566 28.6667 28.0871V26.5417C28.6667 26.372 28.5639 26.2192 28.4067 26.1554L26.9584 25.5696L26.6842 24.7258L27.51 23.4008C27.5996 23.2569 27.593 23.073 27.4934 22.9358L26.585 21.6858C26.4853 21.5485 26.3123 21.4854 26.1475 21.5262L24.6325 21.9012L23.9167 21.3812L23.8071 19.8271C23.7952 19.6577 23.6816 19.5124 23.52 19.46L22.0513 18.9825C21.8897 18.931 21.713 18.9818 21.6034 19.1112L20.6004 20.305H19.7117L18.7084 19.1112C18.5987 18.9817 18.4217 18.9308 18.26 18.9825L18.25 18.9862V16.5C18.25 15.5795 18.9962 14.8333 19.9167 14.8333H39.0834C40.0038 14.8333 40.75 15.5795 40.75 16.5V29Z" fill="black"/>
</g>
<defs>
<clipPath id="clip0_110014_5">
<rect width="25" height="25" fill="white" transform="translate(17 14)"/>
</clipPath>
</defs>
</svg>
