<svg width="38" height="40" viewBox="0 0 38 40" fill="none" xmlns="http://www.w3.org/2000/svg">
<circle cx="18" cy="18" r="18" fill="#FFA501"/>
<path d="M33.2645 34.1457L32.6145 34.5793L34.1449 36.875H16.8547L18.6777 34.1406H28.6023V33.3594H18.4688C18.4045 33.3594 18.3412 33.3752 18.2845 33.4055C18.2278 33.4359 18.1794 33.4797 18.1438 33.5332L15.8 37.0488C15.7573 37.1131 15.7345 37.1885 15.7344 37.2656V38.4375C15.7344 38.6447 15.8167 38.8434 15.9632 38.9899C16.1097 39.1364 16.3084 39.2188 16.5156 39.2188H34.4844C34.6916 39.2188 34.8903 39.1364 35.0368 38.9899C35.1833 38.8434 35.2656 38.6447 35.2656 38.4375V37.2656C35.2655 37.1885 35.2427 37.1131 35.2 37.0488L33.2645 34.1457ZM16.5156 38.4375V37.6562H34.4844V38.4375H16.5156Z" fill="black"/>
<path d="M33.3125 15.7812H17.6875C17.377 15.7822 17.0795 15.9059 16.8599 16.1255C16.6403 16.3451 16.5166 16.6426 16.5156 16.9531V27.1094C16.5166 27.4199 16.6403 27.7174 16.8599 27.937C17.0795 28.1566 17.377 28.2803 17.6875 28.2812H23.1562V29.8438H21.5938C21.4901 29.8438 21.3908 29.8849 21.3175 29.9582C21.2443 30.0314 21.2031 30.1308 21.2031 30.2344V31.7969C21.2031 31.9005 21.2443 31.9998 21.3175 32.0731C21.3908 32.1463 21.4901 32.1875 21.5938 32.1875H29.4062C29.5099 32.1875 29.6092 32.1463 29.6825 32.0731C29.7557 31.9998 29.7969 31.9005 29.7969 31.7969V30.2344C29.7969 30.1308 29.7557 30.0314 29.6825 29.9582C29.6092 29.8849 29.5099 29.8438 29.4062 29.8438H27.8438V28.2812H33.3125C33.623 28.2803 33.9205 28.1566 34.1401 27.937C34.3597 27.7174 34.4834 27.4199 34.4844 27.1094V16.9531C34.4834 16.6426 34.3597 16.3451 34.1401 16.1255C33.9205 15.9059 33.623 15.7822 33.3125 15.7812ZM29.0156 30.625V31.4062H21.9844V30.625H29.0156ZM23.9375 29.8438V28.2812H27.0625V29.8438H23.9375ZM33.7031 27.1094C33.7031 27.213 33.662 27.3123 33.5887 27.3856C33.5155 27.4588 33.4161 27.5 33.3125 27.5H17.6875C17.5839 27.5 17.4845 27.4588 17.4113 27.3856C17.338 27.3123 17.2969 27.213 17.2969 27.1094V25.9375H33.7031V27.1094ZM33.7031 25.1562H17.2969V16.9531C17.2969 16.8495 17.338 16.7502 17.4113 16.6769C17.4845 16.6037 17.5839 16.5625 17.6875 16.5625H33.3125C33.4161 16.5625 33.5155 16.6037 33.5887 16.6769C33.662 16.7502 33.7031 16.8495 33.7031 16.9531V25.1562Z" fill="black"/>
<path d="M31.3594 26.3281H32.1406V27.1094H31.3594V26.3281Z" fill="black"/>
<path d="M21.9844 24.375H23.5469C23.6505 24.375 23.7498 24.3338 23.8231 24.2606C23.8963 24.1873 23.9375 24.088 23.9375 23.9844V23.5938H27.0625V23.9844C27.0625 24.088 27.1037 24.1873 27.1769 24.2606C27.2502 24.3338 27.3495 24.375 27.4531 24.375H29.0156C29.1192 24.375 29.2186 24.3338 29.2918 24.2606C29.3651 24.1873 29.4062 24.088 29.4062 23.9844V22.4219C29.4062 22.3183 29.3651 22.2189 29.2918 22.1457C29.2186 22.0724 29.1192 22.0312 29.0156 22.0312H28.625V19.6875H29.0156C29.1192 19.6875 29.2186 19.6463 29.2918 19.5731C29.3651 19.4998 29.4062 19.4005 29.4062 19.2969V17.7344C29.4062 17.6308 29.3651 17.5314 29.2918 17.4582C29.2186 17.3849 29.1192 17.3438 29.0156 17.3438H27.4531C27.3495 17.3438 27.2502 17.3849 27.1769 17.4582C27.1037 17.5314 27.0625 17.6308 27.0625 17.7344V18.125H23.9375V17.7344C23.9375 17.6308 23.8963 17.5314 23.8231 17.4582C23.7498 17.3849 23.6505 17.3438 23.5469 17.3438H21.9844C21.8808 17.3438 21.7814 17.3849 21.7082 17.4582C21.6349 17.5314 21.5938 17.6308 21.5938 17.7344V19.2969C21.5938 19.4005 21.6349 19.4998 21.7082 19.5731C21.7814 19.6463 21.8808 19.6875 21.9844 19.6875H22.375V22.0312H21.9844C21.8808 22.0312 21.7814 22.0724 21.7082 22.1457C21.6349 22.2189 21.5938 22.3183 21.5938 22.4219V23.9844C21.5938 24.088 21.6349 24.1873 21.7082 24.2606C21.7814 24.3338 21.8808 24.375 21.9844 24.375ZM28.625 23.5938H27.8438V22.8125H28.625V23.5938ZM27.8438 18.125H28.625V18.9062H27.8438V18.125ZM22.375 18.125H23.1562V18.9062H22.375V18.125ZM23.1562 19.6875H23.5469C23.6505 19.6875 23.7498 19.6463 23.8231 19.5731C23.8963 19.4998 23.9375 19.4005 23.9375 19.2969V18.9062H27.0625V19.2969C27.0625 19.4005 27.1037 19.4998 27.1769 19.5731C27.2502 19.6463 27.3495 19.6875 27.4531 19.6875H27.8438V22.0312H27.4531C27.3495 22.0312 27.2502 22.0724 27.1769 22.1457C27.1037 22.2189 27.0625 22.3183 27.0625 22.4219V22.8125H23.9375V22.4219C23.9375 22.3183 23.8963 22.2189 23.8231 22.1457C23.7498 22.0724 23.6505 22.0312 23.5469 22.0312H23.1562V19.6875ZM22.375 22.8125H23.1562V23.5938H22.375V22.8125Z" fill="black"/>
<path d="M21.9844 35.3125H27.4531V36.0938H21.9844V35.3125Z" fill="black"/>
<path d="M36.3867 29.3906L35.2813 28.2852C35.2449 28.2488 35.2016 28.22 35.154 28.2006C35.1064 28.1811 35.0553 28.1714 35.0039 28.1719C34.9531 28.1714 34.9026 28.1812 34.8556 28.2006C34.8086 28.2201 34.7661 28.2489 34.7305 28.2852L29.4805 33.5352C29.4377 33.5779 29.4055 33.6301 29.3867 33.6875L29.1094 34.5156C29.0871 34.5843 29.084 34.6577 29.1005 34.728C29.1171 34.7982 29.1526 34.8626 29.2031 34.9141L28.6523 35.4688L29.2031 36.0195L29.7578 35.4688C29.7936 35.5048 29.8363 35.5333 29.8832 35.5528C29.9301 35.5722 29.9804 35.5822 30.0312 35.582C30.0736 35.5816 30.1157 35.575 30.1562 35.5625L30.9844 35.2852C31.0418 35.2664 31.094 35.2342 31.1367 35.1914L36.3867 29.9414C36.4595 29.8682 36.5003 29.7692 36.5003 29.666C36.5003 29.5628 36.4595 29.4638 36.3867 29.3906ZM30.6523 34.5742L30.1406 34.7422L29.9258 34.5313L30.0977 34.0195L33.8984 30.2188L34.4531 30.7695L30.6523 34.5742ZM35.0039 30.2188L34.4531 29.668L35.0039 29.1133L35.5586 29.668L35.0039 30.2188Z" fill="black"/>
</svg>
