<svg width="40" height="37" viewBox="0 0 40 37" fill="none" xmlns="http://www.w3.org/2000/svg">
<circle cx="18" cy="18" r="18" fill="#FFA501"/>
<path d="M38.3871 16H16.6129C16.1853 16.0006 15.7754 16.1707 15.473 16.473C15.1707 16.7754 15.0006 17.1853 15 17.6129V31.3226C15.0006 31.7502 15.1707 32.1601 15.473 32.4625C15.7754 32.7648 16.1853 32.9349 16.6129 32.9355H24.9244L24.3866 34.5484H23.0645C22.9576 34.5484 22.855 34.5909 22.7794 34.6665C22.7038 34.7421 22.6613 34.8447 22.6613 34.9516V35.7581H19.0323C18.9253 35.7581 18.8228 35.8005 18.7471 35.8762C18.6715 35.9518 18.629 36.0543 18.629 36.1613C18.629 36.2682 18.6715 36.3708 18.7471 36.4464C18.8228 36.522 18.9253 36.5645 19.0323 36.5645H36.7742C36.8811 36.5645 36.9837 36.522 37.0593 36.4464C37.1349 36.3708 37.1774 36.2682 37.1774 36.1613C37.1774 36.0543 37.1349 35.9518 37.0593 35.8762C36.9837 35.8005 36.8811 35.7581 36.7742 35.7581H32.3387V34.9516C32.3387 34.8447 32.2962 34.7421 32.2206 34.6665C32.145 34.5909 32.0424 34.5484 31.9355 34.5484H30.6134L30.0756 32.9355H38.3871C38.8147 32.9349 39.2246 32.7648 39.527 32.4625C39.8293 32.1601 39.9994 31.7502 40 31.3226V17.6129C39.9994 17.1853 39.8293 16.7754 39.527 16.473C39.2246 16.1707 38.8147 16.0006 38.3871 16ZM31.5323 35.3548V35.7581H23.4677V35.3548H31.5323ZM25.2369 34.5484L25.7747 32.9355H29.2253L29.7631 34.5484H25.2369ZM39.1935 31.3226C39.1933 31.5364 39.1082 31.7413 38.957 31.8925C38.8059 32.0437 38.6009 32.1288 38.3871 32.129H16.6129C16.3991 32.1288 16.1941 32.0437 16.043 31.8925C15.8918 31.7413 15.8067 31.5364 15.8065 31.3226V30.5161H39.1935V31.3226ZM21.8377 26.0806L21.6865 29.7097H21.2167L21.0655 26.0806H21.8377ZM21.121 25.2742L21.3901 23.6613H21.5131L21.7823 25.2742H21.121ZM21.4516 22.8548C21.0146 22.8548 20.6452 22.3009 20.6452 21.6452C20.6452 21.2314 21.0675 20.63 21.4506 20.2061C21.7959 20.5892 22.2581 21.2016 22.2581 21.6452C22.2581 22.3009 21.8886 22.8548 21.4516 22.8548ZM25.8397 22.0484L25.8871 22.1436V22.4516H24.2742V22.1436L24.3216 22.0484H25.8397ZM24.7248 21.2419L25.0806 20.5307L25.4365 21.2419H24.7248ZM25.8871 23.2581V29.6593C25.8873 29.6761 25.8884 29.693 25.8906 29.7097H24.2707C24.2729 29.693 24.274 29.6761 24.2742 29.6593V23.2581H25.8871ZM29.5161 21.6452H30.7258V22.4516H30.3226C30.2156 22.4516 30.1131 22.4941 30.0375 22.5697C29.9618 22.6453 29.9194 22.7479 29.9194 22.8548C29.9194 22.9618 29.9618 23.0643 30.0375 23.14C30.1131 23.2156 30.2156 23.2581 30.3226 23.2581H30.7258V24.0645H29.5161C29.4092 24.0645 29.3066 24.107 29.231 24.1826C29.1554 24.2582 29.1129 24.3608 29.1129 24.4677C29.1129 24.5747 29.1554 24.6772 29.231 24.7529C29.3066 24.8285 29.4092 24.871 29.5161 24.871H30.7258V25.6774H30.3226C30.2156 25.6774 30.1131 25.7199 30.0375 25.7955C29.9618 25.8711 29.9194 25.9737 29.9194 26.0806C29.9194 26.1876 29.9618 26.2901 30.0375 26.3658C30.1131 26.4414 30.2156 26.4839 30.3226 26.4839H30.7258V27.2903H29.5161C29.4092 27.2903 29.3066 27.3328 29.231 27.4084C29.1554 27.484 29.1129 27.5866 29.1129 27.6935C29.1129 27.8005 29.1554 27.9031 29.231 27.9787C29.3066 28.0543 29.4092 28.0968 29.5161 28.0968H30.7258V29.7097H27.9032V20.0323H30.7258V20.8387H29.5161C29.4092 20.8387 29.3066 20.8812 29.231 20.9568C29.1554 21.0324 29.1129 21.135 29.1129 21.2419C29.1129 21.3489 29.1554 21.4514 29.231 21.5271C29.3066 21.6027 29.4092 21.6452 29.5161 21.6452ZM34.3548 26.4839V29.6593C34.355 29.6761 34.3562 29.693 34.3584 29.7097H32.7384C32.7406 29.693 32.7418 29.6761 32.7419 29.6593V26.4839H34.3548ZM32.7419 25.6774V25.3695L33.5484 23.7566L34.3548 25.3695V25.6774H32.7419ZM39.1935 29.7097H35.1578C35.16 29.693 35.1611 29.6761 35.1613 29.6593V25.2742C35.1612 25.2116 35.1467 25.1498 35.119 25.0938L33.9093 22.6744C33.8757 22.6074 33.8242 22.5511 33.7604 22.5118C33.6967 22.4724 33.6233 22.4516 33.5484 22.4516C33.4735 22.4516 33.4001 22.4724 33.3363 22.5118C33.2726 22.5511 33.2211 22.6074 33.1875 22.6744L31.9778 25.0938C31.95 25.1498 31.9355 25.2116 31.9355 25.2742V29.6593C31.9356 29.6761 31.9368 29.693 31.939 29.7097H31.5323V19.629C31.5323 19.5221 31.4898 19.4195 31.4142 19.3439C31.3385 19.2683 31.236 19.2258 31.129 19.2258H27.5C27.3931 19.2258 27.2905 19.2683 27.2149 19.3439C27.1393 19.4195 27.0968 19.5221 27.0968 19.629V29.7097H26.69C26.6922 29.693 26.6934 29.6761 26.6935 29.6593V22.0484C26.6935 21.9858 26.679 21.924 26.6512 21.8679L25.4415 19.4486C25.408 19.3816 25.3564 19.3253 25.2927 19.286C25.229 19.2466 25.1555 19.2258 25.0806 19.2258C25.0057 19.2258 24.9323 19.2466 24.8686 19.286C24.8048 19.3253 24.7533 19.3816 24.7198 19.4486L23.5101 21.8679C23.4823 21.924 23.4678 21.9858 23.4677 22.0484V29.6593C23.4679 29.6761 23.4691 29.693 23.4713 29.7097H22.4934L22.6608 25.6941C22.6613 25.685 22.6608 25.6759 22.6608 25.6663V25.6542C22.6599 25.64 22.6582 25.6259 22.6557 25.6119V25.6109L22.2828 23.3725C22.751 23.0192 23.0645 22.377 23.0645 21.6452C23.0645 20.6089 21.8634 19.4612 21.7263 19.3337C21.6516 19.2644 21.5535 19.2259 21.4516 19.2259C21.3497 19.2259 21.2516 19.2644 21.1769 19.3337C21.0398 19.4612 19.8387 20.6089 19.8387 21.6452C19.8387 22.377 20.1522 23.0192 20.6205 23.3725L20.2475 25.6109V25.6119C20.2451 25.6259 20.2434 25.64 20.2424 25.6542V25.6663C20.2424 25.6759 20.2419 25.685 20.2424 25.6941L20.4098 29.7097H15.8065V17.6129C15.8067 17.3991 15.8918 17.1941 16.043 17.043C16.1941 16.8918 16.3991 16.8067 16.6129 16.8065H38.3871C38.6009 16.8067 38.8059 16.8918 38.957 17.043C39.1082 17.1941 39.1933 17.3991 39.1935 17.6129V29.7097Z" fill="black"/>
<path d="M19.4355 30.9193H17.0161C16.9092 30.9193 16.8066 30.9618 16.731 31.0374C16.6554 31.113 16.6129 31.2156 16.6129 31.3225C16.6129 31.4295 16.6554 31.532 16.731 31.6077C16.8066 31.6833 16.9092 31.7258 17.0161 31.7258H19.4355C19.5424 31.7258 19.645 31.6833 19.7206 31.6077C19.7962 31.532 19.8387 31.4295 19.8387 31.3225C19.8387 31.2156 19.7962 31.113 19.7206 31.0374C19.645 30.9618 19.5424 30.9193 19.4355 30.9193Z" fill="black"/>
<path d="M21.0484 30.9193H20.6452C20.5382 30.9193 20.4357 30.9618 20.36 31.0374C20.2844 31.113 20.2419 31.2156 20.2419 31.3225C20.2419 31.4295 20.2844 31.532 20.36 31.6077C20.4357 31.6833 20.5382 31.7258 20.6452 31.7258H21.0484C21.1553 31.7258 21.2579 31.6833 21.3335 31.6077C21.4091 31.532 21.4516 31.4295 21.4516 31.3225C21.4516 31.2156 21.4091 31.113 21.3335 31.0374C21.2579 30.9618 21.1553 30.9193 21.0484 30.9193Z" fill="black"/>
<path d="M25.0807 23.6613C24.9737 23.6613 24.8712 23.7037 24.7955 23.7794C24.7199 23.855 24.6774 23.9575 24.6774 24.0645V28.5C24.6774 28.6069 24.7199 28.7095 24.7955 28.7851C24.8712 28.8607 24.9737 28.9032 25.0807 28.9032C25.1876 28.9032 25.2902 28.8607 25.3658 28.7851C25.4414 28.7095 25.4839 28.6069 25.4839 28.5V24.0645C25.4839 23.9575 25.4414 23.855 25.3658 23.7794C25.2902 23.7037 25.1876 23.6613 25.0807 23.6613Z" fill="black"/>
<path d="M33.5484 26.8871C33.4414 26.8871 33.3389 26.9296 33.2632 27.0052C33.1876 27.0808 33.1451 27.1834 33.1451 27.2903V28.5C33.1451 28.6069 33.1876 28.7095 33.2632 28.7851C33.3389 28.8607 33.4414 28.9032 33.5484 28.9032C33.6553 28.9032 33.7579 28.8607 33.8335 28.7851C33.9091 28.7095 33.9516 28.6069 33.9516 28.5V27.2903C33.9516 27.1834 33.9091 27.0808 33.8335 27.0052C33.7579 26.9296 33.6553 26.8871 33.5484 26.8871Z" fill="black"/>
<path d="M17.0161 18.4194H20.2419C20.3489 18.4194 20.4515 18.3769 20.5271 18.3013C20.6027 18.2256 20.6452 18.1231 20.6452 18.0161C20.6452 17.9092 20.6027 17.8066 20.5271 17.731C20.4515 17.6554 20.3489 17.6129 20.2419 17.6129H17.0161C16.9092 17.6129 16.8066 17.6554 16.731 17.731C16.6554 17.8066 16.6129 17.9092 16.6129 18.0161C16.6129 18.1231 16.6554 18.2256 16.731 18.3013C16.8066 18.3769 16.9092 18.4194 17.0161 18.4194Z" fill="black"/>
<path d="M17.0161 19.6291H17.8226C17.9295 19.6291 18.0321 19.5866 18.1077 19.511C18.1833 19.4354 18.2258 19.3328 18.2258 19.2259C18.2258 19.1189 18.1833 19.0164 18.1077 18.9407C18.0321 18.8651 17.9295 18.8226 17.8226 18.8226H17.0161C16.9092 18.8226 16.8066 18.8651 16.731 18.9407C16.6554 19.0164 16.6129 19.1189 16.6129 19.2259C16.6129 19.3328 16.6554 19.4354 16.731 19.511C16.8066 19.5866 16.9092 19.6291 17.0161 19.6291Z" fill="black"/>
<path d="M36.3709 28.9033H37.9838C38.0908 28.9033 38.1933 28.8608 38.269 28.7852C38.3446 28.7095 38.3871 28.607 38.3871 28.5C38.3871 28.3931 38.3446 28.2905 38.269 28.2149C38.1933 28.1393 38.0908 28.0968 37.9838 28.0968H36.3709C36.264 28.0968 36.1614 28.1393 36.0858 28.2149C36.0102 28.2905 35.9677 28.3931 35.9677 28.5C35.9677 28.607 36.0102 28.7095 36.0858 28.7852C36.1614 28.8608 36.264 28.9033 36.3709 28.9033Z" fill="black"/>
<path d="M37.5807 27.6935H37.9839C38.0908 27.6935 38.1934 27.6511 38.269 27.5754C38.3446 27.4998 38.3871 27.3973 38.3871 27.2903C38.3871 27.1834 38.3446 27.0808 38.269 27.0052C38.1934 26.9296 38.0908 26.8871 37.9839 26.8871H37.5807C37.4737 26.8871 37.3712 26.9296 37.2955 27.0052C37.2199 27.0808 37.1774 27.1834 37.1774 27.2903C37.1774 27.3973 37.2199 27.4998 37.2955 27.5754C37.3712 27.6511 37.4737 27.6935 37.5807 27.6935Z" fill="black"/>
</svg>
